<?xml version="1.0" standalone="no"?>
<!DOCTYPE svg PUBLIC "-//W3C//DTD SVG 20010904//EN"
 "http://www.w3.org/TR/2001/REC-SVG-20010904/DTD/svg10.dtd">
<svg version="1.0" xmlns="http://www.w3.org/2000/svg"
 width="512.000000pt" height="512.000000pt" viewBox="0 0 512.000000 512.000000"
 preserveAspectRatio="xMidYMid meet">
<metadata>
Created by potrace 1.14, written by Peter Selinger 2001-2017
</metadata>
<g transform="translate(0.000000,512.000000) scale(0.100000,-0.100000)"
fill="#000000" stroke="none">
<path d="M726 5104 c-156 -38 -301 -169 -361 -329 -9 -22 -11 -31 -23 -95 -13
-76 -7 -1197 7 -1250 41 -148 148 -276 285 -340 98 -47 145 -53 393 -53 l181
0 7 -46 c12 -82 54 -196 93 -257 97 -148 234 -215 434 -209 118 3 161 20 178
69 17 52 -10 96 -70 113 -87 25 -122 88 -121 217 2 124 -30 111 269 112 262 2
333 9 396 42 27 13 31 13 43 -4 7 -10 13 -22 13 -27 0 -18 66 -104 114 -149
57 -54 166 -111 241 -126 28 -6 165 -11 304 -12 140 0 257 -3 260 -6 12 -12
17 -139 7 -193 -14 -70 -68 -131 -118 -131 -9 0 -29 -11 -44 -24 -61 -52 -24
-139 64 -152 314 -47 525 91 603 393 10 42 19 84 19 95 0 17 13 18 208 19 114
0 221 3 237 5 93 15 198 70 273 144 64 62 102 124 134 215 21 58 21 77 22 670
0 553 -2 615 -18 669 -52 175 -190 311 -367 361 -59 16 -120 18 -784 18 -396
0 -742 -3 -770 -7 -27 -5 -72 -16 -99 -27 -50 -19 -66 -18 -66 5 0 21 -79 128
-129 174 -53 49 -163 105 -236 121 -31 6 -244 10 -550 11 -536 0 -522 2 -548
-50 -12 -23 -18 -25 -92 -25 -78 0 -80 0 -92 27 -7 16 -24 33 -38 38 -38 14
-190 11 -259 -6z"/>
<path d="M938 2385 c-2 -2 -19 -6 -38 -9 -168 -26 -351 -167 -432 -331 -49
-99 -63 -162 -62 -285 0 -98 4 -126 26 -188 46 -128 128 -240 225 -309 l41
-30 -56 -27 c-77 -38 -178 -105 -231 -153 -36 -33 -44 -47 -43 -73 0 -18 5
-37 11 -43 6 -6 -8 -35 -42 -83 -45 -65 -55 -74 -82 -74 -53 0 -79 -41 -116
-183 -16 -59 -22 -114 -23 -197 -1 -110 0 -118 31 -180 42 -85 102 -146 183
-184 l65 -31 630 0 630 0 69 33 68 32 66 -32 67 -33 610 -2 c654 -3 654 -3
744 48 l39 21 68 -33 69 -34 630 0 630 0 65 31 c83 40 145 102 183 182 24 52
30 78 32 150 4 129 -22 258 -77 382 -30 66 -49 84 -93 85 -27 0 -40 9 -83 64
-28 35 -49 68 -46 73 17 27 12 58 -12 88 -34 40 -128 103 -210 142 l-64 30 42
30 c151 108 247 289 254 478 8 242 -101 438 -321 572 -151 92 -404 99 -570 15
-168 -84 -283 -226 -335 -409 -35 -125 -15 -309 45 -428 37 -73 111 -164 170
-210 30 -23 55 -45 55 -49 0 -4 -15 -12 -33 -19 -39 -14 -157 -84 -195 -115
-53 -44 -139 -133 -169 -174 l-31 -43 -38 48 c-96 119 -211 212 -331 270 l-73
34 43 30 c269 192 335 586 143 863 -68 98 -205 197 -326 237 -93 30 -248 33
-344 6 -288 -79 -481 -345 -463 -638 6 -99 38 -202 88 -286 37 -61 163 -194
185 -194 31 0 11 -28 -31 -44 -105 -41 -267 -170 -348 -278 l-36 -48 -59 73
c-33 39 -72 82 -87 95 -64 55 -153 115 -221 149 l-74 36 37 25 c98 65 196 201
235 325 26 82 32 231 13 317 -14 61 -76 201 -99 226 -6 7 -26 30 -45 53 -67
83 -209 167 -329 195 -53 12 -214 20 -224 11z"/>
</g>
</svg>
